<svg width="560" height="125" viewBox="0 0 560 125" fill="none" xmlns="http://www.w3.org/2000/svg">
<path fill-rule="evenodd" clip-rule="evenodd" d="M350.742 92.8223V100H297.285H294.755H288.876V0.46875H294.755H297.285H350.4V7.71484H297.285V45.1074H343.769V52.2852H297.285V92.8223H350.742ZM376.035 0.46875H379.658L416.435 88.1055L453.281 0.46875H456.972H461.689H464.423V100H456.015V56.5234L456.773 12.1061L419.648 100H413.222L376.224 12.4074L376.923 56.5234V100H368.583V0.46875H371.181H376.035ZM521.845 0.46875H489.511V100H497.919V58.5059H526.937L550.966 100H559.921V99.1113L535.008 56.7719C538.52 55.7512 541.674 54.21 544.472 52.1484C547.936 49.5508 550.647 46.3379 552.607 42.5098C554.612 38.6816 555.615 34.4206 555.615 29.7266C555.615 23.3919 554.225 18.0599 551.445 13.7305C548.71 9.35547 544.814 6.05143 539.755 3.81836C534.697 1.58529 528.727 0.46875 521.845 0.46875ZM497.919 51.3281H523.759C528.954 51.3281 533.284 50.3255 536.747 48.3203C540.211 46.3151 542.809 43.6719 544.54 40.3906C546.318 37.0638 547.206 33.5091 547.206 29.7266C547.206 25.2148 546.227 21.3184 544.267 18.0371C542.353 14.7103 539.505 12.1582 535.722 10.3809C531.94 8.60352 527.314 7.71484 521.845 7.71484H497.919V51.3281ZM89.0509 29.3168H104.238V98.6811H89.0509V29.3168ZM87.4355 10.2268C87.4355 4.85225 91.3328 0.948975 96.7133 0.948975C102.094 0.948975 105.985 4.85225 105.985 10.2268C105.985 15.6013 102.088 19.5046 96.7133 19.5046C91.3388 19.5046 87.4355 15.6013 87.4355 10.2268ZM0.464478 98.6811V2.70244H16.3298V45.5845H17.6689L60.0165 2.70244H79.641L33.9366 49.3436L82.3253 98.6811H60.551L17.6689 55.2646H16.3298V98.6811H0.464478ZM151.299 40.0719C163.67 40.0719 172.539 48.4068 172.539 63.9959C172.539 79.4589 163.67 87.9261 151.299 87.9261C138.929 87.9261 130.059 79.4529 130.059 63.9959C130.059 48.539 138.929 40.0719 151.299 40.0719ZM115.137 29.3168V124.215V124.221H130.33V89.001H131.669C137.452 97.0658 145.384 100.561 155.731 100.561C173.482 100.561 187.996 88.1963 187.996 63.9959C187.996 39.7956 173.482 27.4312 155.731 27.4312C145.246 27.4312 137.314 31.0643 131.669 39.2612H130.33L128.985 29.3168H115.137ZM197.406 68.1575V29.3168H212.593V68.1635C212.593 81.4706 219.715 87.5177 231.815 87.5177C243.915 87.5177 251.037 81.0683 251.037 67.4909V29.3108H266.23V67.4909C266.23 90.3401 253.193 100.555 231.815 100.555C210.437 100.555 197.406 91.0127 197.406 68.1575Z" fill="white"/>
</svg>
