<svg width="666" height="130" viewBox="0 0 666 130" fill="none" xmlns="http://www.w3.org/2000/svg">
<path fill-rule="evenodd" clip-rule="evenodd" d="M541.818 105V0H533.684V105H541.818ZM353.283 57.2852H296.408V105H288V5.46875H296.408V50.1074H353.283V5.46875H361.691V105H353.283V57.2852ZM400.451 103.701C404.507 105.479 408.951 106.367 413.781 106.367C418.202 106.367 422.076 105.775 425.402 104.59C428.729 103.405 431.577 101.81 433.947 99.8047C436.363 97.7995 438.368 95.612 439.963 93.2422L434.836 89.2773C432.147 92.7865 429.117 95.3613 425.744 97.002C422.372 98.597 418.498 99.3945 414.123 99.3945C410.386 99.3945 406.968 98.6426 403.869 97.1387C400.77 95.6348 398.081 93.5384 395.803 90.8496C393.57 88.1608 391.838 85.0619 390.607 81.5527C389.423 77.998 388.83 74.1699 388.83 70.0684V68.5645H441.535V63.5742C441.535 58.6068 440.897 54.0723 439.621 49.9707C438.345 45.8236 436.454 42.2461 433.947 39.2383C431.486 36.1849 428.433 33.8379 424.787 32.1973C421.141 30.5111 416.971 29.668 412.277 29.668C408.085 29.668 404.074 30.5566 400.246 32.334C396.464 34.0658 393.091 36.5723 390.129 39.8535C387.167 43.1348 384.842 47.0768 383.156 51.6797C381.47 56.2826 380.627 61.4323 380.627 67.1289V70.0684C380.627 75.3548 381.424 80.2311 383.02 84.6973C384.66 89.1178 386.962 92.946 389.924 96.1816C392.932 99.4173 396.441 101.924 400.451 103.701ZM389.127 61.5918C389.395 59.2006 389.842 56.9447 390.471 54.8242C391.61 51.0872 393.205 47.8743 395.256 45.1855C397.352 42.4512 399.836 40.3548 402.707 38.8965C405.624 37.4382 408.814 36.709 412.277 36.709C416.926 36.709 420.799 37.8483 423.898 40.127C426.997 42.4056 429.322 45.3678 430.871 49.0137C432.466 52.6139 433.309 56.4876 433.4 60.6348V61.5918H389.127ZM498.068 99.3945C499.866 97.8909 501.418 96.317 502.723 94.6728C502.79 96.0195 502.902 97.4111 503.059 98.8477C503.378 101.309 503.811 103.359 504.357 105H513.039V104.18C512.31 102.402 511.74 100.146 511.33 97.4121C510.965 94.6777 510.783 92.0345 510.783 89.4824V53.7305C510.783 48.3529 509.644 43.8867 507.365 40.332C505.087 36.7773 501.919 34.1113 497.863 32.334C493.853 30.5566 489.204 29.668 483.918 29.668C479.725 29.668 475.874 30.2832 472.365 31.5137C468.902 32.6986 465.917 34.3164 463.41 36.3672C460.904 38.418 458.967 40.7422 457.6 43.3398C456.232 45.9375 455.549 48.6263 455.549 51.4062L463.752 51.4746C463.752 48.7402 464.595 46.2565 466.281 44.0234C468.013 41.7448 470.36 39.9447 473.322 38.623C476.33 37.2559 479.748 36.5723 483.576 36.5723C487.723 36.5723 491.21 37.2559 494.035 38.623C496.861 39.9902 499.003 41.9499 500.461 44.502C501.919 47.054 502.648 50.0846 502.648 53.5938V61.9336H487.541C482.346 61.9336 477.652 62.4805 473.459 63.5742C469.312 64.6224 465.757 66.1719 462.795 68.2227C459.878 70.2279 457.645 72.6888 456.096 75.6055C454.546 78.4766 453.771 81.735 453.771 85.3809C453.771 89.3913 454.751 92.9915 456.711 96.1816C458.716 99.3262 461.496 101.81 465.051 103.633C468.651 105.456 472.867 106.367 477.697 106.367C481.981 106.367 485.809 105.729 489.182 104.453C492.6 103.132 495.562 101.445 498.068 99.3945ZM499.299 89.8926C500.699 88.2118 501.816 86.4363 502.648 84.5661V68.2227H488.635C484.442 68.2227 480.682 68.61 477.355 69.3848C474.074 70.1139 471.294 71.2077 469.016 72.666C466.737 74.0788 464.982 75.7878 463.752 77.793C462.567 79.7982 461.975 82.0768 461.975 84.6289C461.975 87.2721 462.635 89.6875 463.957 91.875C465.324 94.0625 467.238 95.8171 469.699 97.1387C472.206 98.4147 475.168 99.0527 478.586 99.0527C483.143 99.0527 487.154 98.2096 490.617 96.5234C494.126 94.8372 497.02 92.627 499.299 89.8926ZM592.131 31.0352V37.7344H576.818V87.0215C576.818 90.4395 577.274 93.0143 578.186 94.7461C579.097 96.4779 580.282 97.64 581.74 98.2324C583.199 98.8249 584.771 99.1211 586.457 99.1211C587.688 99.1211 588.872 99.0527 590.012 98.916C591.151 98.7337 592.176 98.5514 593.088 98.3691L593.43 105.273C592.427 105.592 591.128 105.843 589.533 106.025C587.938 106.253 586.343 106.367 584.748 106.367C581.604 106.367 578.824 105.798 576.408 104.658C573.993 103.473 572.102 101.468 570.734 98.6426C569.367 95.7715 568.684 91.875 568.684 86.9531V37.7344H555.08V31.0352H568.684V12.0312H576.818V31.0352H592.131ZM617.424 43.4284V0H609.289V105H617.424V54.2918C618.464 51.3419 619.923 48.5799 621.799 46.0059C623.804 43.2715 626.265 41.0612 629.182 39.375C632.144 37.6432 635.585 36.7773 639.504 36.7773C643.059 36.7773 646.135 37.3926 648.732 38.623C651.33 39.8535 653.335 41.9271 654.748 44.8438C656.161 47.7148 656.867 51.7025 656.867 56.8066V105H665.07V56.875C665.07 51.9531 664.523 47.7832 663.43 44.3652C662.382 40.9473 660.832 38.1445 658.781 35.957C656.73 33.7695 654.247 32.1745 651.33 31.1719C648.413 30.1693 645.109 29.668 641.418 29.668C637.18 29.668 633.306 30.4883 629.797 32.1289C626.333 33.7695 623.303 36.0482 620.705 38.9648C619.493 40.3499 618.399 41.8378 617.424 43.4284ZM88.5864 34.3168H103.773V103.681H88.5864V34.3168ZM86.9711 15.2268C86.9711 9.85225 90.8683 5.94897 96.2489 5.94897C101.629 5.94897 105.521 9.85225 105.521 15.2268C105.521 20.6013 101.623 24.5046 96.2489 24.5046C90.8744 24.5046 86.9711 20.6013 86.9711 15.2268ZM0 103.681V7.70244H15.8653V50.5845H17.2045L59.552 7.70244H79.1765L33.4721 54.3436L81.8608 103.681H60.0865L17.2045 60.2646H15.8653V103.681H0ZM150.835 45.0719C163.205 45.0719 172.075 53.4068 172.075 68.9959C172.075 84.4589 163.205 92.9261 150.835 92.9261C138.464 92.9261 129.595 84.4529 129.595 68.9959C129.595 53.539 138.464 45.0719 150.835 45.0719ZM114.672 34.3168V129.215V129.221H129.865V94.001H131.204C136.987 102.066 144.92 105.561 155.267 105.561C173.017 105.561 187.532 93.1963 187.532 68.9959C187.532 44.7956 173.017 32.4312 155.267 32.4312C144.782 32.4312 136.849 36.0643 131.204 44.2612H129.865L128.52 34.3168H114.672ZM196.942 73.1575V34.3168H212.128V73.1635C212.128 86.4706 219.25 92.5177 231.35 92.5177C243.451 92.5177 250.573 86.0683 250.573 72.4909V34.3108H265.765V72.4909C265.765 95.3401 252.728 105.555 231.35 105.555C209.972 105.555 196.942 96.0127 196.942 73.1575Z" fill="white"/>
</svg>
