<svg width="267" height="125" viewBox="0 0 267 125" fill="none" xmlns="http://www.w3.org/2000/svg">
<path d="M0.464478 98.681V2.70236H16.3298V45.5844H17.6689L60.0165 2.70236H79.641L33.9366 49.3436L82.3253 98.681H60.551L17.6689 55.2645H16.3298V98.681H0.464478Z" fill="white"/>
<path d="M89.0509 29.3167H104.238V98.681H89.0509V29.3167ZM87.4355 10.2267C87.4355 4.85218 91.3328 0.948898 96.7134 0.948898C102.094 0.948898 105.985 4.85218 105.985 10.2267C105.985 15.6012 102.088 19.5045 96.7134 19.5045C91.3388 19.5045 87.4355 15.6012 87.4355 10.2267Z" fill="white"/>
<path d="M172.539 63.9959C172.539 48.4068 163.67 40.0718 151.299 40.0718C138.929 40.0718 130.059 48.5389 130.059 63.9959C130.059 79.4529 138.929 87.926 151.299 87.926C163.67 87.926 172.539 79.4589 172.539 63.9959ZM115.137 124.214V29.3167H128.985L130.33 39.2611H131.669C137.314 31.0642 145.246 27.4312 155.731 27.4312C173.482 27.4312 187.996 39.7955 187.996 63.9959C187.996 88.1962 173.482 100.561 155.731 100.561C145.384 100.561 137.452 97.0657 131.669 89.0009H130.33V124.22H115.137V124.214Z" fill="white"/>
<path d="M197.406 68.1634V29.3167H212.593V68.1634C212.593 81.4706 219.715 87.5176 231.815 87.5176C243.915 87.5176 251.037 81.0682 251.037 67.4908V29.3107H266.23V67.4908C266.23 90.34 253.193 100.555 231.815 100.555C210.437 100.555 197.406 91.0126 197.406 68.1574" fill="white"/>
</svg>
