<svg id="Logo-Health" xmlns="http://www.w3.org/2000/svg" width="378.955" height="73.63" viewBox="0 0 378.955 73.63">
  <path id="Health" d="M308.726,59.829V0h-4.635V59.829ZM201.3,32.641H168.892V59.829H164.1V3.116h4.791V28.551H201.3V3.116h4.791V59.829H201.3Zm26.876,26.448a18.712,18.712,0,0,0,7.6,1.519,19.714,19.714,0,0,0,6.622-1.013,15.505,15.505,0,0,0,4.869-2.727,17.758,17.758,0,0,0,3.428-3.739l-2.921-2.259a14.654,14.654,0,0,1-5.181,4.4,15.316,15.316,0,0,1-6.622,1.363,13.2,13.2,0,0,1-5.843-1.285,13.958,13.958,0,0,1-4.6-3.584,17.031,17.031,0,0,1-2.961-5.3,20.583,20.583,0,0,1-1.013-6.544v-.857h30.031V36.224a26.008,26.008,0,0,0-1.091-7.751,17.431,17.431,0,0,0-3.233-6.115,13.958,13.958,0,0,0-5.219-4.012,16.8,16.8,0,0,0-7.128-1.441,16.093,16.093,0,0,0-6.855,1.519,17.6,17.6,0,0,0-5.765,4.285,20.4,20.4,0,0,0-3.973,6.739,25.449,25.449,0,0,0-1.441,8.8v1.675a24.606,24.606,0,0,0,1.364,8.336,19.74,19.74,0,0,0,3.934,6.544A18.154,18.154,0,0,0,228.176,59.089Zm-6.452-23.994a22.259,22.259,0,0,1,.766-3.856,17.256,17.256,0,0,1,2.726-5.492,12.4,12.4,0,0,1,4.246-3.583,12.022,12.022,0,0,1,5.453-1.246,10.876,10.876,0,0,1,6.622,1.948,11.964,11.964,0,0,1,3.973,5.064,17.106,17.106,0,0,1,1.441,6.622v.545ZM283.8,56.635a18.6,18.6,0,0,0,2.652-2.69q.057,1.151.191,2.379a19.07,19.07,0,0,0,.74,3.506h4.947v-.467a16.952,16.952,0,0,1-.974-3.856,34.16,34.16,0,0,1-.312-4.518V30.615a13.887,13.887,0,0,0-1.948-7.634,11.963,11.963,0,0,0-5.414-4.557,19.451,19.451,0,0,0-7.946-1.519,19.774,19.774,0,0,0-6.583,1.052,16.308,16.308,0,0,0-5.1,2.766,12.894,12.894,0,0,0-3.311,3.973,9.743,9.743,0,0,0-1.169,4.6l4.674.039a6.878,6.878,0,0,1,1.441-4.246,10.069,10.069,0,0,1,4.012-3.077,13.974,13.974,0,0,1,5.843-1.168,13.62,13.62,0,0,1,5.96,1.168,8.2,8.2,0,0,1,3.662,3.35,10.272,10.272,0,0,1,1.246,5.18V35.29H277.8a31.814,31.814,0,0,0-8.024.935,18.57,18.57,0,0,0-6.076,2.649,11.781,11.781,0,0,0-3.817,4.207,12.249,12.249,0,0,0,.35,11.724,11.983,11.983,0,0,0,4.752,4.246,15.756,15.756,0,0,0,7.206,1.558A17.773,17.773,0,0,0,283.8,56.635Zm.7-5.414a12.985,12.985,0,0,0,1.908-3.035V38.873h-7.985a28.433,28.433,0,0,0-6.427.662,14.652,14.652,0,0,0-4.752,1.87,8.982,8.982,0,0,0-3,2.921,7.509,7.509,0,0,0-1.013,3.9,7.83,7.83,0,0,0,1.129,4.129,8.51,8.51,0,0,0,3.272,3A11.032,11.032,0,0,0,272.7,56.44,15.48,15.48,0,0,0,279.552,55,14.511,14.511,0,0,0,284.5,51.221Zm52.9-33.537V21.5h-8.725V49.585a9.736,9.736,0,0,0,.779,4.4,4.048,4.048,0,0,0,2.025,1.986,7.074,7.074,0,0,0,2.688.506,17.005,17.005,0,0,0,2.026-.117q.974-.156,1.753-.312l.195,3.934a12.021,12.021,0,0,1-2.22.428,19.244,19.244,0,0,1-2.727.195,11.015,11.015,0,0,1-4.752-.974,7.071,7.071,0,0,1-3.233-3.428,15.716,15.716,0,0,1-1.168-6.661V21.5h-7.752V17.684h7.752V6.855h4.635V17.684Zm14.412,7.062V0h-4.635V59.829h4.635V30.935a18.324,18.324,0,0,1,2.493-4.721,13.612,13.612,0,0,1,4.207-3.778,11.439,11.439,0,0,1,5.881-1.48,12.176,12.176,0,0,1,5.258,1.052,7.236,7.236,0,0,1,3.428,3.545,15.709,15.709,0,0,1,1.207,6.816v27.46h4.674V32.407a23.622,23.622,0,0,0-.934-7.128,12.035,12.035,0,0,0-2.649-4.791,10.323,10.323,0,0,0-4.246-2.727,17.321,17.321,0,0,0-5.648-.857,15.441,15.441,0,0,0-6.622,1.4,16.119,16.119,0,0,0-5.181,3.9A18.67,18.67,0,0,0,351.806,24.745ZM50.476,19.554H59.13V59.077H50.476Zm-.92-10.877a5.285,5.285,0,1,1,10.57,0,5.285,5.285,0,1,1-10.57,0ZM0,59.077V4.389H9.04V28.823H9.8L33.933,4.389H45.115L19.072,30.965,46.644,59.077H34.237L9.8,34.339H9.04V59.077Zm85.945-33.4c7.048,0,12.1,4.749,12.1,13.632,0,8.811-5.054,13.635-12.1,13.635s-12.1-4.828-12.1-13.635S78.9,25.682,85.945,25.682ZM65.34,19.554V73.63H74V53.561h.763c3.3,4.6,7.815,6.587,13.711,6.587,10.114,0,18.384-7.045,18.384-20.835S98.585,18.479,88.471,18.479c-5.974,0-10.495,2.07-13.711,6.741H74l-.766-5.666Zm46.877,22.131V19.554h8.653V41.688c0,7.582,4.058,11.028,10.953,11.028s10.953-3.675,10.953-11.411V19.55h8.656V41.305c0,13.019-7.428,18.84-19.61,18.84S112.217,54.708,112.217,41.685Z" fill="#6c18c9" fill-rule="evenodd"/>
</svg>
