<svg id="Logo-Kipu-Purple" xmlns="http://www.w3.org/2000/svg" width="244.995" height="107.951" viewBox="0 0 244.995 107.951">
  <path id="Logo_Kipu" data-name="Logo Kipu" d="M91.34,25.791h-13.3V86.534h13.3ZM84.751.949a7.857,7.857,0,0,0-8.125,8.125,8.122,8.122,0,1,0,16.244,0A7.852,7.852,0,0,0,84.751.949ZM.464,2.485v84.05H14.358V48.514H15.53l37.552,38.02H72.151L29.776,43.329,69.8,2.485H52.615L15.53,40.037H14.358V2.485ZM151.152,56.16c0-13.652-7.767-20.951-18.6-20.951s-18.6,7.415-18.6,20.951,7.768,20.956,18.6,20.956S151.152,69.7,151.152,56.16Zm-50.268,52.735v-83.1h12.126l1.179,8.708h1.173c4.943-7.178,11.89-10.36,21.071-10.36,15.545,0,28.255,10.828,28.255,32.02s-12.71,32.02-28.255,32.02c-9.061,0-16.007-3.061-21.071-10.123h-1.173V108.9h-13.3Zm72.044-83.1V59.8c0,20.015,11.411,28.371,30.132,28.371S233.2,79.23,233.2,59.221V25.786h-13.3V59.221c0,11.89-6.237,17.538-16.833,17.538s-16.833-5.3-16.833-16.949V25.791Z" transform="translate(-0.464 -0.949)" fill="#6c18c9" fill-rule="evenodd"/>
  <path id="Path_1523" data-name="Path 1523" d="M789,4.791a3.872,3.872,0,0,1-1.181,2.839,4,4,0,0,1-5.68,0,3.875,3.875,0,0,1-1.184-2.839,3.88,3.88,0,0,1,1.184-2.839,4,4,0,0,1,5.68,0A3.877,3.877,0,0,1,789,4.791Zm-.568,0a3.328,3.328,0,0,0-1.015-2.44,3.436,3.436,0,0,0-4.874,0,3.323,3.323,0,0,0-1.018,2.437,3.34,3.34,0,0,0,1.01,2.44,3.444,3.444,0,0,0,4.879,0,3.329,3.329,0,0,0,1.012-2.437Zm-1.556,2.34h-.769l-.9-2h-1.3v2h-.691V2.454H785.2a1.607,1.607,0,0,1,1.2.412,1.283,1.283,0,0,1,.4.91,1.32,1.32,0,0,1-.217.715,1.186,1.186,0,0,1-.683.485ZM783.916,4.58h1.213a.948.948,0,0,0,.707-.236.8.8,0,0,0,.233-.586.643.643,0,0,0-.246-.536,1,1,0,0,0-.619-.187h-1.288Z" transform="translate(-544.009 23.957)" fill="#6c1bc9"/>
</svg>
