<svg id="Logo-EMR" xmlns="http://www.w3.org/2000/svg" width="318.777" height="70.514" viewBox="0 0 318.777 70.514">
  <path id="EMR" d="M200.052,53.092v4.09H164.8V.469h35.056V4.6H169.592V25.9h26.486v4.09H169.592v23.1ZM214.463.469h2.064L237.483,50.4,258.478.469h6.349V57.181h-4.791V32.409L260.468,7.1,239.314,57.181h-3.662L214.571,7.271l.4,25.137V57.181h-4.752V.469h4.246Zm83.082,0H279.122V57.181h4.791V33.538h16.534l13.692,23.643h5.1v-.506l-14.2-24.125a17.005,17.005,0,0,0,5.393-2.634,15.758,15.758,0,0,0,4.635-5.492,15.458,15.458,0,0,0,1.714-7.284,16.532,16.532,0,0,0-2.376-9.115,14.554,14.554,0,0,0-6.661-5.648A25.111,25.111,0,0,0,297.546.469Zm-13.633,28.98h14.724a14.584,14.584,0,0,0,7.4-1.714,11.243,11.243,0,0,0,4.44-4.518A12.7,12.7,0,0,0,312,17.14a12.749,12.749,0,0,0-1.675-6.661,10.663,10.663,0,0,0-4.869-4.362A18.509,18.509,0,0,0,297.546,4.6H283.913ZM50.941,16.906h8.654V56.43H50.941ZM50.02,6.029a5.285,5.285,0,1,1,10.569,0,5.285,5.285,0,1,1-10.569,0ZM.464,56.43V1.742H9.5V26.176h.763L34.4,1.742H45.579L19.537,28.318,47.109,56.43H34.7L10.268,31.691H9.5V56.43Zm85.945-33.4c7.049,0,12.1,4.749,12.1,13.632,0,8.811-5.054,13.635-12.1,13.635s-12.1-4.828-12.1-13.635S79.361,23.035,86.41,23.035ZM65.8,16.906V70.982h8.657V50.914h.763c3.3,4.6,7.815,6.587,13.71,6.587,10.114,0,18.384-7.045,18.384-20.835s-8.27-20.834-18.384-20.834c-5.974,0-10.494,2.07-13.71,6.741h-.763L73.7,16.906Zm46.877,22.131V16.906h8.653V39.041c0,7.582,4.058,11.028,10.953,11.028s10.953-3.675,10.953-11.411V16.9H151.9V38.658c0,13.019-7.428,18.84-19.61,18.84S112.681,52.06,112.681,39.038Z" transform="translate(-0.464 -0.469)" fill="#6c18c9" fill-rule="evenodd"/>
</svg>
